<svg width="74" height="75" viewBox="0 0 74 75" fill="none" xmlns="http://www.w3.org/2000/svg">
<g id="Iocn">
<g id="Icon">
<g id="Iocn_2">
<rect id="bg" width="64" height="64" rx="15" transform="matrix(1 0 0 -1 0 64.1738)" fill="url(#paint0_linear_133_80)"/>
</g>
<g id="bg_2" filter="url(#filter0_b_133_80)">
<rect width="64" height="64" rx="15" transform="matrix(1 0 0 -1 10 74.1738)" fill="#EEEEEE" fill-opacity="0.61"/>
<rect x="0.5" y="-0.5" width="63" height="63" rx="14.5" transform="matrix(1 0 0 -1 10 73.1738)" stroke="white"/>
</g>
<g id="Group">
<g id="Group_2">
<path id="Vector" d="M45.822 34.8164C46.3132 32.6972 45.0187 30.5751 42.9305 30.0765C40.8423 29.578 38.7512 30.8918 38.2599 33.011C37.7687 35.1302 39.0632 37.2523 41.1514 37.7509C43.2396 38.2494 45.3307 36.9356 45.822 34.8164Z" stroke="#E34B4B" stroke-width="2" stroke-miterlimit="10" stroke-linecap="round"/>
<path id="Vector_2" d="M46.0786 34.5391C49.1918 35.8531 51.5434 38.6502 52.286 42.056" stroke="#E34B4B" stroke-width="2" stroke-miterlimit="10" stroke-linecap="round"/>
</g>
<g id="Group_3">
<path id="Vector_3" d="M31.1649 45.4618C33.088 44.4957 35.4205 45.2976 36.3726 47.2493C37.3246 49.201 36.5344 51.5681 34.6113 52.5343C32.6882 53.5005 30.3556 52.6986 29.4036 50.7469C28.4516 48.7903 29.2417 46.4232 31.1649 45.4618Z" stroke="#E34B4B" stroke-width="2" stroke-miterlimit="10" stroke-linecap="round"/>
<path id="Vector_4" d="M31.579 44.945C31.5695 44.7517 31.5647 44.5633 31.5647 44.3653C31.5647 40.9885 33.1166 37.974 35.5395 36.0271" stroke="#E34B4B" stroke-width="2" stroke-miterlimit="10" stroke-linecap="round"/>
</g>
<g id="Group_4">
<path id="Vector_5" d="M49.4109 52.5536C47.4925 51.5729 46.7261 49.201 47.6924 47.2541C48.6587 45.3072 50.996 44.5295 52.9144 45.5101C54.8327 46.4908 55.5991 48.8628 54.6328 50.8097C53.6617 52.7565 51.3245 53.5391 49.4109 52.5536Z" stroke="#E34B4B" stroke-width="2" stroke-miterlimit="10" stroke-linecap="round"/>
<path id="Vector_6" d="M48.8301 52.4812C47.0022 54.0561 44.6363 55.0078 42.0468 55.0078C40.3855 55.0078 38.8146 54.6165 37.4198 53.916" stroke="#E34B4B" stroke-width="2" stroke-miterlimit="10" stroke-linecap="round"/>
</g>
</g>
</g>
</g>
<defs>
<filter id="filter0_b_133_80" x="2" y="2.17383" width="80" height="80" filterUnits="userSpaceOnUse" color-interpolation-filters="sRGB">
<feFlood flood-opacity="0" result="BackgroundImageFix"/>
<feGaussianBlur in="BackgroundImageFix" stdDeviation="4"/>
<feComposite in2="SourceAlpha" operator="in" result="effect1_backgroundBlur_133_80"/>
<feBlend mode="normal" in="SourceGraphic" in2="effect1_backgroundBlur_133_80" result="shape"/>
</filter>
<linearGradient id="paint0_linear_133_80" x1="32" y1="0" x2="32" y2="64" gradientUnits="userSpaceOnUse">
<stop stop-color="#FA5151"/>
<stop offset="1" stop-color="#FFCBCB" stop-opacity="0.34"/>
</linearGradient>
</defs>
</svg>
