<svg width="75" height="75" viewBox="0 0 75 75" fill="none" xmlns="http://www.w3.org/2000/svg">
<rect width="64" height="64" rx="15" transform="matrix(1 0 0 -1 0.913361 64.7764)" fill="url(#paint0_linear_133_53)"/>
<g filter="url(#filter0_b_133_53)">
<rect width="64" height="64" rx="15" transform="matrix(1 0 0 -1 10.9134 74.7764)" fill="#EEEEEE" fill-opacity="0.61"/>
<rect x="0.5" y="-0.5" width="63" height="63" rx="14.5" transform="matrix(1 0 0 -1 10.9134 73.7764)" stroke="white"/>
</g>
<path d="M54.5079 44.8591L54.5077 44.8596C54.3084 45.4744 54.3755 46.1232 54.4786 46.6495C54.5673 47.1023 54.7093 47.582 54.8346 48.0052C54.8575 48.0823 54.8797 48.1575 54.901 48.2304C55.0499 48.7397 55.1568 49.1501 55.1885 49.4891C55.2205 49.8312 55.1588 49.9375 55.1435 49.9586L55.1433 49.9589C55.1247 49.9844 55.0388 50.0771 54.7033 50.153C54.3702 50.2283 53.946 50.2537 53.4161 50.269C53.3364 50.2713 53.2538 50.2734 53.169 50.2755C52.7314 50.2865 52.2368 50.2989 51.7852 50.3524C51.256 50.415 50.6177 50.5488 50.096 50.9281L50.0957 50.9283C49.5752 51.3071 49.2537 51.8744 49.0336 52.3565C48.8476 52.7637 48.6859 53.2248 48.5424 53.6338C48.5127 53.7185 48.4838 53.8009 48.4556 53.8801C48.2783 54.3789 48.1228 54.7747 47.9475 55.0683C47.7716 55.3631 47.6543 55.4199 47.6179 55.4318L47.6174 55.4319C47.6022 55.4369 47.4893 55.4653 47.1744 55.3275C46.8635 55.1915 46.5076 54.9621 46.0683 54.6617C46.0113 54.6228 45.9528 54.5825 45.8929 54.5413C45.5235 54.2871 45.1027 53.9976 44.6886 53.7687C44.2144 53.5068 43.615 53.245 42.9647 53.245C42.3144 53.245 41.715 53.5068 41.2408 53.7687C40.8266 53.9976 40.4059 54.2871 40.0365 54.5413C39.9766 54.5825 39.918 54.6228 39.861 54.6617C39.4217 54.9621 39.0659 55.1915 38.755 55.3275C38.4401 55.4653 38.3271 55.4369 38.3119 55.4319L38.3114 55.4318C38.275 55.4199 38.1578 55.3631 37.9818 55.0683C37.8065 54.7747 37.6511 54.3789 37.4737 53.8801C37.4455 53.8009 37.4166 53.7184 37.3869 53.6338C37.2435 53.2248 37.0817 52.7637 36.8958 52.3565C36.6756 51.8744 36.3542 51.3071 35.8336 50.9283L35.8333 50.9281C35.3117 50.5488 34.6733 50.415 34.1441 50.3524C33.6925 50.2989 33.1979 50.2865 32.7603 50.2755C32.6756 50.2734 32.5929 50.2713 32.5132 50.269C31.9833 50.2537 31.5591 50.2283 31.226 50.153C30.8905 50.0771 30.8046 49.9844 30.7861 49.9589L30.7859 49.9586C30.7705 49.9375 30.7088 49.8312 30.7408 49.4891C30.7726 49.1501 30.8794 48.7397 31.0283 48.2304C31.0496 48.1575 31.0719 48.0823 31.0947 48.0052C31.22 47.582 31.3621 47.1023 31.4507 46.6495C31.5538 46.1232 31.6209 45.4744 31.4216 44.8596L31.4215 44.8591C31.2234 44.2491 30.7821 43.771 30.3943 43.4167C30.0714 43.1217 29.6902 42.8308 29.3509 42.572C29.2745 42.5137 29.2001 42.457 29.1291 42.4022C28.7115 42.0804 28.3841 41.8094 28.1599 41.5505C27.9357 41.2917 27.9131 41.1566 27.9131 41.1071C27.9131 41.0577 27.9357 40.9226 28.1599 40.6638C28.3841 40.4049 28.7115 40.1339 29.1291 39.812C29.2001 39.7573 29.2745 39.7006 29.3509 39.6423C29.6902 39.3834 30.0714 39.0926 30.3943 38.7976C30.7821 38.4433 31.2234 37.9652 31.4215 37.3552L31.4216 37.3547C31.6209 36.7399 31.5538 36.091 31.4507 35.5647C31.3621 35.112 31.22 34.6323 31.0947 34.209C31.0719 34.1319 31.0496 34.0567 31.0283 33.9839C30.8794 33.4746 30.7726 33.0642 30.7408 32.7252C30.7088 32.383 30.7705 32.2768 30.7859 32.2557L30.7861 32.2554C30.8046 32.2299 30.8905 32.1372 31.226 32.0613C31.5591 31.986 31.9833 31.9606 32.5132 31.9452C32.5929 31.9429 32.6756 31.9409 32.7604 31.9387C33.1979 31.9278 33.6926 31.9154 34.1441 31.8619C34.6733 31.7992 35.3117 31.6655 35.8333 31.2862L35.8336 31.286C36.3542 30.9072 36.6756 30.3399 36.8958 29.8578C37.0817 29.4506 37.2435 28.9895 37.3869 28.5805C37.4166 28.4958 37.4455 28.4134 37.4737 28.3341C37.6511 27.8354 37.8065 27.4396 37.9818 27.146C38.1578 26.8512 38.275 26.7943 38.3114 26.7825L38.3119 26.7823C38.3271 26.7774 38.4401 26.749 38.755 26.8867C39.0659 27.0227 39.4217 27.2521 39.861 27.5525C39.918 27.5915 39.9765 27.6318 40.0364 27.673C40.4058 27.9272 40.8266 28.2167 41.2408 28.4455C41.715 28.7075 42.3144 28.9692 42.9647 28.9692C43.615 28.9692 44.2144 28.7075 44.6886 28.4455C45.1027 28.2167 45.5235 27.9272 45.8929 27.673C45.9528 27.6318 46.0114 27.5915 46.0683 27.5525C46.5076 27.2521 46.8635 27.0227 47.1744 26.8867C47.4893 26.749 47.6022 26.7774 47.6174 26.7823L47.6179 26.7825C47.6543 26.7943 47.7716 26.8512 47.9475 27.146C48.1228 27.4396 48.2783 27.8354 48.4556 28.3341C48.4838 28.4134 48.5127 28.4958 48.5424 28.5805C48.6859 28.9894 48.8476 29.4505 49.0336 29.8578C49.2537 30.3399 49.5752 30.9072 50.0957 31.286L50.096 31.2862C50.6177 31.6655 51.256 31.7992 51.7852 31.8619C52.2368 31.9154 52.7314 31.9278 53.169 31.9387C53.2537 31.9409 53.3364 31.9429 53.4161 31.9452C53.946 31.9606 54.3702 31.986 54.7033 32.0613C55.0388 32.1372 55.1247 32.2299 55.1433 32.2554L55.1435 32.2557C55.1588 32.2768 55.2205 32.383 55.1885 32.7252C55.1568 33.0642 55.0499 33.4746 54.901 33.9839C54.8797 34.0567 54.8575 34.1319 54.8346 34.209C54.7093 34.6323 54.5673 35.112 54.4786 35.5647C54.3755 36.091 54.3084 36.7399 54.5077 37.3547C54.705 37.9647 55.1467 38.4424 55.5337 38.7957C55.8559 39.0897 56.2365 39.3799 56.5755 39.6383C56.6525 39.697 56.7274 39.7541 56.799 39.8092C57.2167 40.131 57.5443 40.4022 57.7688 40.6614C57.9931 40.9204 58.0163 41.0564 58.0163 41.1071C58.0163 41.1581 57.993 41.2939 57.7693 41.5523C57.5452 41.8112 57.218 42.0819 56.8005 42.4035C56.7292 42.4585 56.6545 42.5154 56.5776 42.574C56.2387 42.8323 55.8579 43.1225 55.5354 43.417C55.1475 43.7709 54.706 44.2489 54.5079 44.8591ZM42.9131 47.7764C46.7791 47.7764 49.9131 44.6424 49.9131 40.7764C49.9131 36.9104 46.7791 33.7764 42.9131 33.7764C39.0471 33.7764 35.9131 36.9104 35.9131 40.7764C35.9131 44.6424 39.0471 47.7764 42.9131 47.7764ZM47.9131 40.7764C47.9131 43.5378 45.6745 45.7764 42.9131 45.7764C40.1517 45.7764 37.9131 43.5378 37.9131 40.7764C37.9131 38.0149 40.1517 35.7764 42.9131 35.7764C45.6745 35.7764 47.9131 38.0149 47.9131 40.7764Z" stroke="#E749EE" stroke-width="2"/>
<defs>
<filter id="filter0_b_133_53" x="2.91336" y="2.77637" width="80" height="80" filterUnits="userSpaceOnUse" color-interpolation-filters="sRGB">
<feFlood flood-opacity="0" result="BackgroundImageFix"/>
<feGaussianBlur in="BackgroundImageFix" stdDeviation="4"/>
<feComposite in2="SourceAlpha" operator="in" result="effect1_backgroundBlur_133_53"/>
<feBlend mode="normal" in="SourceGraphic" in2="effect1_backgroundBlur_133_53" result="shape"/>
</filter>
<linearGradient id="paint0_linear_133_53" x1="32" y1="0" x2="32" y2="64" gradientUnits="userSpaceOnUse">
<stop stop-color="#E541ED"/>
<stop offset="1" stop-color="#FEEBFF"/>
</linearGradient>
</defs>
</svg>
