<svg xmlns="http://www.w3.org/2000/svg" width="98" height="79" viewBox="0 0 98 79" fill="none" style="&#10;    background: black;&#10;">
<path fill-rule="evenodd" clip-rule="evenodd" d="M56.0476 66.472C63.4316 67.7093 68.5825 63.2515 71.3506 57.1376C74.4151 50.9396 76.2321 42.5253 75.0118 35.8768C69.2371 59.8297 57.3105 56.1218 44.7667 49.0197C32.3092 42.2261 18.1107 32.0292 6.58605 42.2909C14.416 39.405 23.5037 45.0555 32.3555 51.539C41.2937 58.331 49.429 65.6838 56.0476 66.472Z" fill="white"/>
<path fill-rule="evenodd" clip-rule="evenodd" d="M25.3099 12.5079C17.9805 11.5756 12.6193 15.5865 9.70314 21.5166C6.48672 27.5272 5.49555 35.8377 6.5845 42.3037C12.9038 19.05 23.8202 22.5609 36.2221 29.2136C48.624 35.8662 63.2726 46.1002 75.0136 35.8747C66.7677 38.7277 57.5507 33.1525 48.7733 26.8159C40.0763 20.7795 32.0387 13.601 25.3099 12.5079Z" fill="#28B463"/>
<path fill-rule="evenodd" clip-rule="evenodd" d="M25.1916 14.4703C22.0872 13.6931 19.5459 15.0176 17.8465 17.082C17.6267 17.4626 17.4069 17.8433 17.1871 18.224C19.5675 16.299 22.7897 15.1138 26.4946 15.7301C27.1755 15.8695 27.8564 16.0088 28.5374 16.1481C27.3149 15.1885 26.1728 14.5291 25.1916 14.4703Z" fill="#FEFEFE"/>
</svg>