<svg width="198" height="79" viewBox="0 0 198 79" fill="none" xmlns="http://www.w3.org/2000/svg">
<path fill-rule="evenodd" clip-rule="evenodd" d="M56.0476 66.472C63.4316 67.7093 68.5825 63.2515 71.3506 57.1376C74.4151 50.9396 76.2321 42.5253 75.0118 35.8768C69.2371 59.8297 57.3105 56.1218 44.7667 49.0197C32.3092 42.2261 18.1107 32.0292 6.58605 42.2909C14.416 39.405 23.5037 45.0555 32.3555 51.539C41.2937 58.331 49.429 65.6838 56.0476 66.472Z" fill="white"/>
<path fill-rule="evenodd" clip-rule="evenodd" d="M57.6204 62.9597C65.0668 63.2414 69.7155 58.2947 71.8326 52.0425C72.5045 50.4204 72.8911 48.9163 73.1606 47.1246L72.9926 47.5301C69.7348 54.2541 63.828 59.3848 54.7877 60.0982C51.1817 60.245 47.1069 59.2414 42.7976 57.6626C48.2634 60.4435 53.4947 62.6492 57.6204 62.9597Z" fill="#FEFEFE"/>
<path fill-rule="evenodd" clip-rule="evenodd" d="M25.3099 12.5079C17.9805 11.5756 12.6193 15.5865 9.70314 21.5166C6.48672 27.5272 5.49555 35.8377 6.5845 42.3037C12.9038 19.05 23.8202 22.5609 36.2221 29.2136C48.624 35.8662 63.2726 46.1002 75.0136 35.8747C66.7677 38.7277 57.5507 33.1525 48.7733 26.8159C40.0763 20.7795 32.0387 13.601 25.3099 12.5079Z" fill="#28B463"/>
<path fill-rule="evenodd" clip-rule="evenodd" d="M25.1916 14.4703C22.0872 13.6931 19.5459 15.0176 17.8465 17.082C17.6267 17.4626 17.4069 17.8433 17.1871 18.224C19.5675 16.299 22.7897 15.1138 26.4946 15.7301C27.1755 15.8695 27.8564 16.0088 28.5374 16.1481C27.3149 15.1885 26.1728 14.5291 25.1916 14.4703Z" fill="#FEFEFE"/>
<path d="M109.921 48.0611H105.88L103.394 36.8712L100.907 48.0611H96.8661L92.5144 32.5195H96.5552L99.0419 43.3986L101.218 32.5195H105.569L107.745 43.3986L109.921 33.7628C110.232 32.8303 110.853 32.2087 111.786 32.2087H114.273L109.921 48.0611Z" fill="white"/>
<path d="M126.396 43.3985H129.504C129.193 44.9526 128.261 46.196 127.017 47.1285C125.774 48.061 124.22 48.3718 122.355 48.3718C120.179 48.3718 118.314 47.7501 117.071 46.196C115.827 44.6418 115.206 42.7768 115.206 39.9793C115.206 37.4927 115.827 35.3169 117.071 34.0735C118.314 32.5194 120.179 31.8977 122.355 31.8977C124.841 31.8977 126.706 32.5194 127.95 34.0735C129.193 35.6277 129.815 37.4927 129.815 40.2902C129.815 40.601 129.815 40.601 129.815 40.601V40.9118C129.815 41.2227 129.815 41.2227 129.815 41.2227H119.557C119.557 42.466 119.868 43.3985 120.49 44.0202C121.111 44.6418 121.733 44.9526 122.666 44.9526C123.287 44.9526 123.909 44.9527 124.531 44.6418C124.531 44.6418 124.841 44.6418 124.841 44.331L125.152 44.0202C125.152 44.0202 125.463 43.7093 125.463 43.3985C125.463 43.3985 125.774 43.3985 126.396 43.3985ZM119.246 38.736H125.463C125.463 37.8035 125.152 36.871 124.531 36.2494C123.909 35.6277 123.287 35.3169 122.355 35.3169C121.422 35.3169 120.801 35.6277 120.179 36.2494C119.557 36.871 119.246 37.8035 119.246 38.736Z" fill="white"/>
<path d="M130.436 27.8569H132.612C133.233 27.8569 133.544 28.1678 134.166 28.4786C134.477 28.7894 134.787 29.4111 134.787 29.7219V48.061H130.747V27.8569H130.436Z" fill="#28B463"/>
<path d="M135.409 27.8569H137.585C138.207 27.8569 138.518 28.1678 139.139 28.4786C139.45 28.7894 139.761 29.4111 139.761 29.7219V48.061H135.72V27.8569H135.409Z" fill="#28B463"/>
<path d="M154.059 48.061H151.884C151.262 48.061 150.951 47.7501 150.329 47.4393C150.019 47.1285 149.708 46.5068 149.708 45.8851V37.8035C149.708 36.871 149.397 36.2494 148.775 35.6277C148.154 35.3169 147.532 35.006 146.91 35.006C146.289 35.006 145.667 35.3169 145.045 35.6277C144.424 35.9385 144.113 36.871 144.113 37.8035V48.061H140.072V38.736C140.072 35.9385 140.694 34.3844 142.248 33.4519C143.802 32.5194 145.356 31.8977 146.91 31.8977C148.775 31.8977 150.329 32.2085 151.573 33.141C153.127 34.0735 153.749 35.9385 153.749 38.736V48.061H154.059Z" fill="#28B463"/>
<path d="M165.871 43.3985H168.979C168.668 44.9526 167.736 46.196 166.493 47.1285C165.249 48.061 163.695 48.3718 161.83 48.3718C159.654 48.3718 157.789 47.7501 156.546 46.196C155.303 44.6418 154.681 42.7768 154.681 39.9793C154.681 37.4927 155.303 35.3169 156.546 34.0735C157.789 32.5194 159.654 31.8977 161.83 31.8977C164.317 31.8977 166.182 32.5194 167.425 34.0735C168.668 35.6277 169.29 37.4927 169.29 40.2902C169.29 40.601 169.29 40.601 169.29 40.601V40.9118C169.29 41.2227 169.29 41.2227 169.29 41.2227H159.033C159.033 42.466 159.343 43.3985 159.965 44.0202C160.587 44.6418 161.208 44.9526 162.141 44.9526C162.763 44.9526 163.384 44.9527 164.006 44.6418C164.006 44.6418 164.317 44.6418 164.317 44.331L164.628 44.0202C164.628 44.0202 164.938 43.7093 164.938 43.3985C164.938 43.3985 165.249 43.3985 165.871 43.3985ZM158.722 38.736H164.938C164.938 37.8035 164.628 36.871 164.006 36.2494C163.384 35.6277 162.763 35.3169 161.83 35.3169C160.898 35.3169 160.276 35.6277 159.654 36.2494C159.033 36.871 158.722 37.8035 158.722 38.736Z" fill="#28B463"/>
<path d="M169.29 43.0877H173.331C173.331 44.0202 173.641 44.331 174.263 44.9527C174.885 45.2635 175.506 45.5744 176.75 45.5744C177.371 45.5744 177.993 45.5743 178.615 45.2635C179.236 44.9527 179.236 44.6419 179.236 44.0202C179.236 43.3985 178.304 42.7769 176.75 42.466C176.128 42.466 175.506 42.1552 175.196 42.1552C173.02 41.5335 171.776 40.9119 170.844 40.2902C169.911 39.6685 169.601 38.736 169.601 37.4927C169.601 35.9386 170.222 34.6952 171.466 33.7627C172.709 32.8302 174.263 32.5194 176.128 32.5194C178.304 32.5194 179.858 32.8302 181.101 33.7627C182.345 34.6952 182.966 35.9386 182.966 37.4927H180.48C179.858 37.4927 179.236 37.1819 178.615 36.5602C178.304 36.2494 178.304 36.2494 177.993 35.9386C177.371 35.6277 176.75 35.3169 176.128 35.3169C175.196 35.3169 174.885 35.3169 174.263 35.6277C173.952 35.9386 173.641 36.2494 173.641 36.5602C173.641 37.1819 174.574 37.8035 176.75 38.1144C177.061 38.1144 177.061 38.1144 177.371 38.4252C177.682 38.4252 177.682 38.4252 177.993 38.4252C179.858 39.0469 181.412 39.6685 182.345 40.2902C182.966 40.9119 183.588 41.8444 183.588 43.0877C183.588 44.9527 182.966 46.196 181.723 47.1285C180.48 48.061 178.615 48.3718 176.439 48.3718C174.263 48.3718 172.398 48.061 171.466 47.1285C169.911 46.196 169.29 44.9527 169.29 43.0877Z" fill="white"/>
<path d="M183.588 43.0877H187.629C187.629 44.0202 187.94 44.331 188.562 44.9527C189.183 45.2635 189.805 45.5744 191.048 45.5744C191.67 45.5744 192.292 45.5743 192.913 45.2635C193.535 44.9527 193.535 44.6419 193.535 44.0202C193.535 43.3985 192.603 42.7769 191.048 42.466C190.427 42.466 189.805 42.1552 189.494 42.1552C187.318 41.5335 186.075 40.9119 185.143 40.2902C184.21 39.6685 183.899 38.736 183.899 37.4927C183.899 35.9386 184.521 34.6952 185.764 33.7627C187.008 32.8302 188.562 32.5194 190.427 32.5194C192.603 32.5194 194.157 32.8302 195.4 33.7627C196.643 34.6952 197.265 35.9386 197.265 37.4927H194.778C194.157 37.4927 193.535 37.1819 192.913 36.5602C192.603 36.2494 192.603 36.2494 192.292 35.9386C191.67 35.6277 191.048 35.3169 190.427 35.3169C189.494 35.3169 189.183 35.3169 188.562 35.6277C188.251 35.9386 187.94 36.2494 187.94 36.5602C187.94 37.1819 188.873 37.8035 191.048 38.1144C191.359 38.1144 191.359 38.1144 191.67 38.4252C191.981 38.4252 191.981 38.4252 192.292 38.4252C194.157 39.0469 195.711 39.6685 196.643 40.2902C197.265 40.9119 197.887 41.8444 197.887 43.0877C197.887 44.9527 197.265 46.196 196.022 47.1285C194.778 48.061 192.913 48.3718 190.738 48.3718C188.562 48.3718 186.697 48.061 185.764 47.1285C184.21 46.196 183.588 44.9527 183.588 43.0877Z" fill="white"/>
<path d="M127.379 54.5643H96.2959V54.2535H127.379V54.5643Z" fill="white"/>
<path d="M135.616 52.3437V53.0217H134.5V56.5317H133.66V53.0217H132.544V52.3437H135.616ZM136.013 54.8577C136.013 54.5217 136.079 54.2237 136.211 53.9637C136.347 53.7037 136.529 53.5037 136.757 53.3637C136.989 53.2237 137.247 53.1537 137.531 53.1537C137.779 53.1537 137.995 53.2037 138.179 53.3037C138.367 53.4037 138.517 53.5297 138.629 53.6817V53.2077H139.475V56.5317H138.629V56.0457C138.521 56.2017 138.371 56.3317 138.179 56.4357C137.991 56.5357 137.773 56.5857 137.525 56.5857C137.245 56.5857 136.989 56.5137 136.757 56.3697C136.529 56.2257 136.347 56.0237 136.211 55.7637C136.079 55.4997 136.013 55.1977 136.013 54.8577ZM138.629 54.8697C138.629 54.6657 138.589 54.4917 138.509 54.3477C138.429 54.1997 138.321 54.0877 138.185 54.0117C138.049 53.9317 137.903 53.8917 137.747 53.8917C137.591 53.8917 137.447 53.9297 137.315 54.0057C137.183 54.0817 137.075 54.1937 136.991 54.3417C136.911 54.4857 136.871 54.6577 136.871 54.8577C136.871 55.0577 136.911 55.2337 136.991 55.3857C137.075 55.5337 137.183 55.6477 137.315 55.7277C137.451 55.8077 137.595 55.8477 137.747 55.8477C137.903 55.8477 138.049 55.8097 138.185 55.7337C138.321 55.6537 138.429 55.5417 138.509 55.3977C138.589 55.2497 138.629 55.0737 138.629 54.8697ZM141.597 53.1537C141.845 53.1537 142.063 53.2037 142.251 53.3037C142.439 53.3997 142.587 53.5257 142.695 53.6817V53.2077H143.541V56.5557C143.541 56.8637 143.479 57.1377 143.355 57.3777C143.231 57.6217 143.045 57.8137 142.797 57.9537C142.549 58.0977 142.249 58.1697 141.897 58.1697C141.425 58.1697 141.037 58.0597 140.733 57.8397C140.433 57.6197 140.263 57.3197 140.223 56.9397H141.057C141.101 57.0917 141.195 57.2117 141.339 57.2997C141.487 57.3917 141.665 57.4377 141.873 57.4377C142.117 57.4377 142.315 57.3637 142.467 57.2157C142.619 57.0717 142.695 56.8517 142.695 56.5557V56.0397C142.587 56.1957 142.437 56.3257 142.245 56.4297C142.057 56.5337 141.841 56.5857 141.597 56.5857C141.317 56.5857 141.061 56.5137 140.829 56.3697C140.597 56.2257 140.413 56.0237 140.277 55.7637C140.145 55.4997 140.079 55.1977 140.079 54.8577C140.079 54.5217 140.145 54.2237 140.277 53.9637C140.413 53.7037 140.595 53.5037 140.823 53.3637C141.055 53.2237 141.313 53.1537 141.597 53.1537ZM142.695 54.8697C142.695 54.6657 142.655 54.4917 142.575 54.3477C142.495 54.1997 142.387 54.0877 142.251 54.0117C142.115 53.9317 141.969 53.8917 141.813 53.8917C141.657 53.8917 141.513 53.9297 141.381 54.0057C141.249 54.0817 141.141 54.1937 141.057 54.3417C140.977 54.4857 140.937 54.6577 140.937 54.8577C140.937 55.0577 140.977 55.2337 141.057 55.3857C141.141 55.5337 141.249 55.6477 141.381 55.7277C141.517 55.8077 141.661 55.8477 141.813 55.8477C141.969 55.8477 142.115 55.8097 142.251 55.7337C142.387 55.6537 142.495 55.5417 142.575 55.3977C142.655 55.2497 142.695 55.0737 142.695 54.8697ZM145.202 52.0917V56.5317H144.362V52.0917H145.202ZM146.458 52.8117C146.31 52.8117 146.186 52.7657 146.086 52.6737C145.99 52.5777 145.942 52.4597 145.942 52.3197C145.942 52.1797 145.99 52.0637 146.086 51.9717C146.186 51.8757 146.31 51.8277 146.458 51.8277C146.606 51.8277 146.728 51.8757 146.824 51.9717C146.924 52.0637 146.974 52.1797 146.974 52.3197C146.974 52.4597 146.924 52.5777 146.824 52.6737C146.728 52.7657 146.606 52.8117 146.458 52.8117ZM146.872 53.2077V56.5317H146.032V53.2077H146.872ZM149.544 53.1597C149.94 53.1597 150.26 53.2857 150.504 53.5377C150.748 53.7857 150.87 54.1337 150.87 54.5817V56.5317H150.03V54.6957C150.03 54.4317 149.964 54.2297 149.832 54.0897C149.7 53.9457 149.52 53.8737 149.292 53.8737C149.06 53.8737 148.876 53.9457 148.74 54.0897C148.608 54.2297 148.542 54.4317 148.542 54.6957V56.5317H147.702V53.2077H148.542V53.6217C148.654 53.4777 148.796 53.3657 148.968 53.2857C149.144 53.2017 149.336 53.1597 149.544 53.1597ZM154.758 54.7977C154.758 54.9177 154.75 55.0257 154.734 55.1217H152.304C152.324 55.3617 152.408 55.5497 152.556 55.6857C152.704 55.8217 152.886 55.8897 153.102 55.8897C153.414 55.8897 153.636 55.7557 153.768 55.4877H154.674C154.578 55.8077 154.394 56.0717 154.122 56.2797C153.85 56.4837 153.516 56.5857 153.12 56.5857C152.8 56.5857 152.512 56.5157 152.256 56.3757C152.004 56.2317 151.806 56.0297 151.662 55.7697C151.522 55.5097 151.452 55.2097 151.452 54.8697C151.452 54.5257 151.522 54.2237 151.662 53.9637C151.802 53.7037 151.998 53.5037 152.25 53.3637C152.502 53.2237 152.792 53.1537 153.12 53.1537C153.436 53.1537 153.718 53.2217 153.966 53.3577C154.218 53.4937 154.412 53.6877 154.548 53.9397C154.688 54.1877 154.758 54.4737 154.758 54.7977ZM153.888 54.5577C153.884 54.3417 153.806 54.1697 153.654 54.0417C153.502 53.9097 153.316 53.8437 153.096 53.8437C152.888 53.8437 152.712 53.9077 152.568 54.0357C152.428 54.1597 152.342 54.3337 152.31 54.5577H153.888ZM156.644 56.5857C156.372 56.5857 156.128 56.5377 155.912 56.4417C155.696 56.3417 155.524 56.2077 155.396 56.0397C155.272 55.8717 155.204 55.6857 155.192 55.4817H156.038C156.054 55.6097 156.116 55.7157 156.224 55.7997C156.336 55.8837 156.474 55.9257 156.638 55.9257C156.798 55.9257 156.922 55.8937 157.01 55.8297C157.102 55.7657 157.148 55.6837 157.148 55.5837C157.148 55.4757 157.092 55.3957 156.98 55.3437C156.872 55.2877 156.698 55.2277 156.458 55.1637C156.21 55.1037 156.006 55.0417 155.846 54.9777C155.69 54.9137 155.554 54.8157 155.438 54.6837C155.326 54.5517 155.27 54.3737 155.27 54.1497C155.27 53.9657 155.322 53.7977 155.426 53.6457C155.534 53.4937 155.686 53.3737 155.882 53.2857C156.082 53.1977 156.316 53.1537 156.584 53.1537C156.98 53.1537 157.296 53.2537 157.532 53.4537C157.768 53.6497 157.898 53.9157 157.922 54.2517H157.118C157.106 54.1197 157.05 54.0157 156.95 53.9397C156.854 53.8597 156.724 53.8197 156.56 53.8197C156.408 53.8197 156.29 53.8477 156.206 53.9037C156.126 53.9597 156.086 54.0377 156.086 54.1377C156.086 54.2497 156.142 54.3357 156.254 54.3957C156.366 54.4517 156.54 54.5097 156.776 54.5697C157.016 54.6297 157.214 54.6917 157.37 54.7557C157.526 54.8197 157.66 54.9197 157.772 55.0557C157.888 55.1877 157.948 55.3637 157.952 55.5837C157.952 55.7757 157.898 55.9477 157.79 56.0997C157.686 56.2517 157.534 56.3717 157.334 56.4597C157.138 56.5437 156.908 56.5857 156.644 56.5857ZM162.987 53.6037C162.891 53.4277 162.759 53.2937 162.591 53.2017C162.423 53.1097 162.227 53.0637 162.003 53.0637C161.755 53.0637 161.535 53.1197 161.343 53.2317C161.151 53.3437 161.001 53.5037 160.893 53.7117C160.785 53.9197 160.731 54.1597 160.731 54.4317C160.731 54.7117 160.785 54.9557 160.893 55.1637C161.005 55.3717 161.159 55.5317 161.355 55.6437C161.551 55.7557 161.779 55.8117 162.039 55.8117C162.359 55.8117 162.621 55.7277 162.825 55.5597C163.029 55.3877 163.163 55.1497 163.227 54.8457H161.787V54.2037H164.055V54.9357C163.999 55.2277 163.879 55.4977 163.695 55.7457C163.511 55.9937 163.273 56.1937 162.981 56.3457C162.693 56.4937 162.369 56.5677 162.009 56.5677C161.605 56.5677 161.239 56.4777 160.911 56.2977C160.587 56.1137 160.331 55.8597 160.143 55.5357C159.959 55.2117 159.867 54.8437 159.867 54.4317C159.867 54.0197 159.959 53.6517 160.143 53.3277C160.331 52.9997 160.587 52.7457 160.911 52.5657C161.239 52.3817 161.603 52.2897 162.003 52.2897C162.475 52.2897 162.885 52.4057 163.233 52.6377C163.581 52.8657 163.821 53.1877 163.953 53.6037H162.987ZM166.152 56.5857C165.832 56.5857 165.544 56.5157 165.288 56.3757C165.032 56.2317 164.83 56.0297 164.682 55.7697C164.538 55.5097 164.466 55.2097 164.466 54.8697C164.466 54.5297 164.54 54.2297 164.688 53.9697C164.84 53.7097 165.046 53.5097 165.306 53.3697C165.566 53.2257 165.856 53.1537 166.176 53.1537C166.496 53.1537 166.786 53.2257 167.046 53.3697C167.306 53.5097 167.51 53.7097 167.658 53.9697C167.81 54.2297 167.886 54.5297 167.886 54.8697C167.886 55.2097 167.808 55.5097 167.652 55.7697C167.5 56.0297 167.292 56.2317 167.028 56.3757C166.768 56.5157 166.476 56.5857 166.152 56.5857ZM166.152 55.8537C166.304 55.8537 166.446 55.8177 166.578 55.7457C166.714 55.6697 166.822 55.5577 166.902 55.4097C166.982 55.2617 167.022 55.0817 167.022 54.8697C167.022 54.5537 166.938 54.3117 166.77 54.1437C166.606 53.9717 166.404 53.8857 166.164 53.8857C165.924 53.8857 165.722 53.9717 165.558 54.1437C165.398 54.3117 165.318 54.5537 165.318 54.8697C165.318 55.1857 165.396 55.4297 165.552 55.6017C165.712 55.7697 165.912 55.8537 166.152 55.8537ZM171.592 54.7977C171.592 54.9177 171.584 55.0257 171.568 55.1217H169.138C169.158 55.3617 169.242 55.5497 169.39 55.6857C169.538 55.8217 169.72 55.8897 169.936 55.8897C170.248 55.8897 170.47 55.7557 170.602 55.4877H171.508C171.412 55.8077 171.228 56.0717 170.956 56.2797C170.684 56.4837 170.35 56.5857 169.954 56.5857C169.634 56.5857 169.346 56.5157 169.09 56.3757C168.838 56.2317 168.64 56.0297 168.496 55.7697C168.356 55.5097 168.286 55.2097 168.286 54.8697C168.286 54.5257 168.356 54.2237 168.496 53.9637C168.636 53.7037 168.832 53.5037 169.084 53.3637C169.336 53.2237 169.626 53.1537 169.954 53.1537C170.27 53.1537 170.552 53.2217 170.8 53.3577C171.052 53.4937 171.246 53.6877 171.382 53.9397C171.522 54.1877 171.592 54.4737 171.592 54.7977ZM170.722 54.5577C170.718 54.3417 170.64 54.1697 170.488 54.0417C170.336 53.9097 170.15 53.8437 169.93 53.8437C169.722 53.8437 169.546 53.9077 169.402 54.0357C169.262 54.1597 169.176 54.3337 169.144 54.5577H170.722ZM173.478 56.5857C173.206 56.5857 172.962 56.5377 172.746 56.4417C172.53 56.3417 172.358 56.2077 172.23 56.0397C172.106 55.8717 172.038 55.6857 172.026 55.4817H172.872C172.888 55.6097 172.95 55.7157 173.058 55.7997C173.17 55.8837 173.308 55.9257 173.472 55.9257C173.632 55.9257 173.756 55.8937 173.844 55.8297C173.936 55.7657 173.982 55.6837 173.982 55.5837C173.982 55.4757 173.926 55.3957 173.814 55.3437C173.706 55.2877 173.532 55.2277 173.292 55.1637C173.044 55.1037 172.84 55.0417 172.68 54.9777C172.524 54.9137 172.388 54.8157 172.272 54.6837C172.16 54.5517 172.104 54.3737 172.104 54.1497C172.104 53.9657 172.156 53.7977 172.26 53.6457C172.368 53.4937 172.52 53.3737 172.716 53.2857C172.916 53.1977 173.15 53.1537 173.418 53.1537C173.814 53.1537 174.13 53.2537 174.366 53.4537C174.602 53.6497 174.732 53.9157 174.756 54.2517H173.952C173.94 54.1197 173.884 54.0157 173.784 53.9397C173.688 53.8597 173.558 53.8197 173.394 53.8197C173.242 53.8197 173.124 53.8477 173.04 53.9037C172.96 53.9597 172.92 54.0377 172.92 54.1377C172.92 54.2497 172.976 54.3357 173.088 54.3957C173.2 54.4517 173.374 54.5097 173.61 54.5697C173.85 54.6297 174.048 54.6917 174.204 54.7557C174.36 54.8197 174.494 54.9197 174.606 55.0557C174.722 55.1877 174.782 55.3637 174.786 55.5837C174.786 55.7757 174.732 55.9477 174.624 56.0997C174.52 56.2517 174.368 56.3717 174.168 56.4597C173.972 56.5437 173.742 56.5857 173.478 56.5857ZM178.777 53.1597C179.029 53.1597 179.253 53.2157 179.449 53.3277C179.645 53.4357 179.797 53.5977 179.905 53.8137C180.017 54.0257 180.073 54.2817 180.073 54.5817V56.5317H179.233V54.6957C179.233 54.4317 179.167 54.2297 179.035 54.0897C178.903 53.9457 178.723 53.8737 178.495 53.8737C178.263 53.8737 178.079 53.9457 177.943 54.0897C177.811 54.2297 177.745 54.4317 177.745 54.6957V56.5317H176.905V52.0917H177.745V53.6217C177.853 53.4777 177.997 53.3657 178.177 53.2857C178.357 53.2017 178.557 53.1597 178.777 53.1597ZM183.962 54.7977C183.962 54.9177 183.954 55.0257 183.938 55.1217H181.508C181.528 55.3617 181.612 55.5497 181.76 55.6857C181.908 55.8217 182.09 55.8897 182.306 55.8897C182.618 55.8897 182.84 55.7557 182.972 55.4877H183.878C183.782 55.8077 183.598 56.0717 183.326 56.2797C183.054 56.4837 182.72 56.5857 182.324 56.5857C182.004 56.5857 181.716 56.5157 181.46 56.3757C181.208 56.2317 181.01 56.0297 180.866 55.7697C180.726 55.5097 180.656 55.2097 180.656 54.8697C180.656 54.5257 180.726 54.2237 180.866 53.9637C181.006 53.7037 181.202 53.5037 181.454 53.3637C181.706 53.2237 181.996 53.1537 182.324 53.1537C182.64 53.1537 182.922 53.2217 183.17 53.3577C183.422 53.4937 183.616 53.6877 183.752 53.9397C183.892 54.1877 183.962 54.4737 183.962 54.7977ZM183.092 54.5577C183.088 54.3417 183.01 54.1697 182.858 54.0417C182.706 53.9097 182.52 53.8437 182.3 53.8437C182.092 53.8437 181.916 53.9077 181.772 54.0357C181.632 54.1597 181.546 54.3337 181.514 54.5577H183.092ZM185.415 53.7237C185.523 53.5477 185.663 53.4097 185.835 53.3097C186.011 53.2097 186.211 53.1597 186.435 53.1597V54.0417H186.213C185.949 54.0417 185.749 54.1037 185.613 54.2277C185.481 54.3517 185.415 54.5677 185.415 54.8757V56.5317H184.575V53.2077H185.415V53.7237ZM190.09 54.7977C190.09 54.9177 190.082 55.0257 190.066 55.1217H187.636C187.656 55.3617 187.74 55.5497 187.888 55.6857C188.036 55.8217 188.218 55.8897 188.434 55.8897C188.746 55.8897 188.968 55.7557 189.1 55.4877H190.006C189.91 55.8077 189.726 56.0717 189.454 56.2797C189.182 56.4837 188.848 56.5857 188.452 56.5857C188.132 56.5857 187.844 56.5157 187.588 56.3757C187.336 56.2317 187.138 56.0297 186.994 55.7697C186.854 55.5097 186.784 55.2097 186.784 54.8697C186.784 54.5257 186.854 54.2237 186.994 53.9637C187.134 53.7037 187.33 53.5037 187.582 53.3637C187.834 53.2237 188.124 53.1537 188.452 53.1537C188.768 53.1537 189.05 53.2217 189.298 53.3577C189.55 53.4937 189.744 53.6877 189.88 53.9397C190.02 54.1877 190.09 54.4737 190.09 54.7977ZM189.22 54.5577C189.216 54.3417 189.138 54.1697 188.986 54.0417C188.834 53.9097 188.648 53.8437 188.428 53.8437C188.22 53.8437 188.044 53.9077 187.9 54.0357C187.76 54.1597 187.674 54.3337 187.642 54.5577H189.22Z" fill="white" fill-opacity="0.59"/>
</svg>
